<svg width="32" height="32" viewBox="0 0 32 32" fill="none" xmlns="http://www.w3.org/2000/svg">
<g clip-path="url(#clip0_23_21)">
<g clip-path="url(#clip1_23_21)">
<mask id="mask0_23_21" style="mask-type:luminance" maskUnits="userSpaceOnUse" x="-2" y="-2" width="37" height="37">
<path d="M35 -2H-2V35H35V-2Z" fill="white"/>
</mask>
<g mask="url(#mask0_23_21)">
<path fill-rule="evenodd" clip-rule="evenodd" d="M25.7434 1.56373C26.2519 1.56127 26.5082 2.17593 26.1487 2.53546L17.0541 11.63L20.0528 14.6287L29.1409 5.54062C29.4986 5.18292 30.1103 5.43463 30.1126 5.94051L30.2037 25.8179C30.206 26.3263 29.5915 26.5825 29.232 26.2229L20.0528 17.0438L17.0577 20.0389L26.2369 29.2181C26.5964 29.5776 26.3402 30.1921 25.8318 30.1898L5.95442 30.0987C5.44854 30.0964 5.19683 29.4847 5.55454 29.127L14.6426 20.0389L11.6439 17.0402L2.54938 26.1348C2.18985 26.4943 1.57519 26.238 1.57764 25.7295L1.67265 6.02532C1.67508 5.51956 2.28672 5.26791 2.64438 5.62555L11.6439 14.6251L14.6391 11.63L5.63946 2.63047C5.28182 2.27281 5.53347 1.66117 6.03924 1.65873L25.7434 1.56373ZM15.8466 10.4225L22.9843 3.28476L8.77729 3.35324L15.8466 10.4225ZM15.8466 12.8375L12.8514 15.8327L15.8502 18.8313L18.8453 15.8362L15.8466 12.8375ZM10.4364 15.8327L3.36715 8.76338L3.29867 22.9704L10.4364 15.8327ZM15.8502 21.2464L8.69299 28.4036L23.0732 28.4695L15.8502 21.2464ZM21.2603 15.8362L28.4834 23.0593L28.4175 8.67908L21.2603 15.8362Z" fill="black"/>
<mask id="mask1_23_21" style="mask-type:luminance" maskUnits="userSpaceOnUse" x="-2" y="-3" width="38" height="38">
<path d="M35.5688 -2.56921H-1.43115V34.4308H35.5688V-2.56921Z" fill="white"/>
</mask>
<g mask="url(#mask1_23_21)">
<path fill-rule="evenodd" clip-rule="evenodd" d="M26.8816 2.70216C27.3901 2.6997 27.6464 3.31438 27.2869 3.67391L18.1923 12.7684L21.191 15.7672L30.2791 6.67905C30.6368 6.32134 31.2485 6.57306 31.2508 7.07893L31.3419 26.9563C31.3442 27.4647 30.7297 27.7209 30.3702 27.3614L21.191 18.1822L18.1958 21.1773L27.3751 30.3565C27.7346 30.716 27.4784 31.3306 26.97 31.3282L7.0926 31.2371C6.58673 31.2348 6.33501 30.6231 6.69272 30.2654L15.7808 21.1773L12.7821 18.1786L3.68758 27.2732C3.32805 27.6327 2.71338 27.3764 2.71583 26.8679L2.81083 7.16375C2.81327 6.65798 3.42488 6.40633 3.78258 6.76398L12.7821 15.7636L15.7772 12.7684L6.77765 3.76891C6.42 3.41121 6.67166 2.7996 7.17742 2.79716L26.8816 2.70216ZM16.9848 11.5609L24.1225 4.42319L9.91548 4.49166L16.9848 11.5609ZM16.9848 13.976L13.9896 16.9711L16.9883 19.9698L19.9835 16.9747L16.9848 13.976ZM11.5746 16.9711L4.50534 9.9018L4.43686 24.1088L11.5746 16.9711ZM16.9883 22.3848L9.83117 29.542L24.2114 29.6079L16.9883 22.3848ZM22.3985 16.9747L29.6216 24.1977L29.5556 9.8175L22.3985 16.9747Z" stroke="black" stroke-width="0.227692"/>
</g>
</g>
</g>
</g>
<defs>
<clipPath id="clip0_23_21">
<rect width="32" height="32" fill="white"/>
</clipPath>
<clipPath id="clip1_23_21">
<rect width="37" height="37" fill="white" transform="translate(-2 -2)"/>
</clipPath>
</defs>
</svg>
