<svg width="650" height="650" viewBox="0 0 650 650" fill="none" xmlns="http://www.w3.org/2000/svg">
<g clip-path="url(#clip0_20_2)">
<mask id="mask0_20_2" style="mask-type:luminance" maskUnits="userSpaceOnUse" x="0" y="0" width="650" height="650">
<path d="M650 0H0V650H650V0Z" fill="white"/>
</mask>
<g mask="url(#mask0_20_2)">
<path fill-rule="evenodd" clip-rule="evenodd" d="M487.382 62.6066C496.314 62.5635 500.817 73.3615 494.501 79.6776L334.731 239.447L387.411 292.127L547.067 132.471C553.351 126.187 564.097 130.609 564.138 139.496L565.738 488.693C565.779 497.624 554.983 502.125 548.667 495.809L387.411 334.553L334.794 387.17L496.051 548.426C502.366 554.742 497.865 565.538 488.934 565.497L139.737 563.897C130.85 563.856 126.428 553.11 132.712 546.826L292.368 387.17L239.688 334.49L79.9188 494.26C73.6027 500.576 62.8047 496.073 62.8478 487.14L64.5168 140.986C64.5596 132.101 75.3045 127.68 81.5877 133.963L239.688 292.064L292.305 239.447L134.204 81.3466C127.921 75.0634 132.342 64.3185 141.227 64.2756L487.382 62.6066ZM313.518 218.234L438.911 92.841L189.328 94.044L313.518 218.234ZM313.518 260.66L260.901 313.277L313.581 365.956L366.198 313.34L313.518 260.66ZM218.475 313.277L94.2851 189.087L93.0821 438.67L218.475 313.277ZM313.581 408.383L187.847 534.117L440.473 535.275L313.581 408.383ZM408.624 313.34L535.516 440.232L534.358 187.606L408.624 313.34Z" fill="black"/>
<mask id="mask1_20_2" style="mask-type:luminance" maskUnits="userSpaceOnUse" x="10" y="-10" width="650" height="650">
<path d="M660 -10H10V640H660V-10Z" fill="white"/>
</mask>
<g mask="url(#mask1_20_2)">
<path fill-rule="evenodd" clip-rule="evenodd" d="M507.382 82.6067C516.314 82.5636 520.817 93.362 514.501 99.678L354.731 259.447L407.411 312.127L567.067 152.471C573.351 146.187 584.097 150.609 584.138 159.496L585.738 508.693C585.779 517.624 574.983 522.125 568.667 515.809L407.411 354.553L354.794 407.17L516.051 568.426C522.366 574.742 517.865 585.538 508.934 585.497L159.737 583.897C150.85 583.856 146.428 573.11 152.712 566.826L312.368 407.17L259.688 354.49L99.9191 514.26C93.6031 520.576 82.8048 516.073 82.8478 507.14L84.5168 160.986C84.5596 152.101 95.3041 147.68 101.588 153.963L259.688 312.064L312.305 259.447L154.204 101.347C147.921 95.063 152.342 84.3185 161.227 84.2757L507.382 82.6067ZM333.518 238.234L458.911 112.841L209.328 114.044L333.518 238.234ZM333.518 280.66L280.901 333.277L333.581 385.957L386.198 333.34L333.518 280.66ZM238.475 333.277L114.285 209.087L113.082 458.67L238.475 333.277ZM333.581 428.383L207.847 554.117L460.473 555.275L333.581 428.383ZM428.624 333.34L555.516 460.232L554.358 207.606L428.624 333.34Z" stroke="black" stroke-width="4"/>
</g>
</g>
</g>
<defs>
<clipPath id="clip0_20_2">
<rect width="650" height="650" fill="white"/>
</clipPath>
</defs>
</svg>
