<svg width="120" height="120" viewBox="0 0 120 120" fill="none" xmlns="http://www.w3.org/2000/svg">
<g clip-path="url(#clip0_339_23)">
<path d="M60 120C93.1371 120 120 93.1371 120 60C120 26.8629 93.1371 0 60 0C26.8629 0 0 26.8629 0 60C0 93.1371 26.8629 120 60 120Z" fill="url(#paint0_linear_339_23)"/>
<path d="M24.971 59.4797L65.3757 42.8323C69.3641 41.0982 82.8901 35.5491 82.8901 35.5491C82.8901 35.5491 89.1329 33.1214 88.6127 39.0173C88.4393 41.4451 87.052 49.9422 85.6647 59.1329L81.3294 86.3584C81.3294 86.3584 80.9826 90.3468 78.0346 91.0404C75.0867 91.7341 70.2312 88.6127 69.3641 87.9191C68.6705 87.3988 56.3583 79.5954 51.8497 75.7803C50.6358 74.7399 49.2485 72.6589 52.0231 70.2312C58.2658 64.5086 65.7225 57.3988 70.2312 52.8901C72.3121 50.8092 74.393 45.9537 65.7225 51.8497L41.2716 68.3237C41.2716 68.3237 38.4971 70.0578 33.2947 68.4971C28.0924 66.9364 22.0231 64.8555 22.0231 64.8555C22.0231 64.8555 17.8612 62.2543 24.971 59.4797Z" fill="white"/>
</g>
<defs>
<linearGradient id="paint0_linear_339_23" x1="80.0046" y1="20.0046" x2="50.0046" y2="90" gradientUnits="userSpaceOnUse">
<stop stop-color="#37AEE2"/>
<stop offset="1" stop-color="#1E96C8"/>
</linearGradient>
<clipPath id="clip0_339_23">
<rect width="120" height="120" fill="white"/>
</clipPath>
</defs>
</svg>
